<svg width="56" height="57" viewBox="0 0 56 57" fill="none" xmlns="http://www.w3.org/2000/svg">
<g id="Arrow button">
<circle id="Ellipse" cx="28" cy="28" r="28" transform="matrix(-1 0 0 1 56 0.337036)" fill="white"/>
<path id="Arrow" d="M18.5429 29.0441C18.1524 28.6536 18.1524 28.0205 18.5429 27.6299L24.9069 21.266C25.2974 20.8754 25.9305 20.8754 26.3211 21.266C26.7116 21.6565 26.7116 22.2897 26.3211 22.6802L20.6642 28.337L26.3211 33.9939C26.7116 34.3844 26.7116 35.0176 26.3211 35.4081C25.9305 35.7986 25.2974 35.7986 24.9069 35.4081L18.5429 29.0441ZM36.75 29.337L19.25 29.337L19.25 27.337L36.75 27.337L36.75 29.337Z" fill="#1D2130"/>
</g>
</svg>
