<svg width="18" height="19" viewBox="0 0 18 19" fill="none" xmlns="http://www.w3.org/2000/svg">
<g id="fi-rr-call-incoming" clip-path="url(#clip0_623_1076)">
<path id="Vector" d="M11.2351 5.6535V2.6535C11.2351 2.45459 11.3142 2.26383 11.4548 2.12317C11.5955 1.98252 11.7862 1.9035 11.9851 1.9035C12.184 1.9035 12.3748 1.98252 12.5155 2.12317C12.6561 2.26383 12.7351 2.45459 12.7351 2.6535V4.61175C13.2076 4.13625 16.2609 1.06725 16.7049 0.623253C16.7741 0.551621 16.8568 0.494484 16.9483 0.455177C17.0398 0.41587 17.1383 0.395181 17.2378 0.394315C17.3374 0.39345 17.4362 0.412426 17.5284 0.450137C17.6205 0.487848 17.7043 0.543538 17.7747 0.613957C17.8451 0.684377 17.9008 0.768116 17.9385 0.860288C17.9762 0.95246 17.9952 1.05122 17.9943 1.1508C17.9935 1.25039 17.9728 1.3488 17.9335 1.44031C17.8942 1.53181 17.837 1.61457 17.7654 1.68375C17.3214 2.12775 14.2839 5.1825 13.8144 5.6535H15.7351C15.934 5.6535 16.1248 5.73252 16.2655 5.87317C16.4061 6.01383 16.4851 6.20459 16.4851 6.4035C16.4851 6.60242 16.4061 6.79318 16.2655 6.93383C16.1248 7.07449 15.934 7.1535 15.7351 7.1535H12.7351C12.3373 7.1535 11.9558 6.99547 11.6745 6.71416C11.3932 6.43286 11.2351 6.05133 11.2351 5.6535ZM17.3064 12.9578C17.741 13.3936 17.9851 13.984 17.9851 14.5995C17.9851 15.215 17.741 15.8054 17.3064 16.2413L16.6224 17.0288C10.4791 22.9073 -4.46686 7.96575 1.32239 1.80375L2.18489 1.05375C2.62112 0.631162 3.20618 0.397307 3.81351 0.402781C4.42084 0.408255 5.0016 0.652618 5.43014 1.083C5.45339 1.1055 6.84239 2.9115 6.84239 2.9115C7.25333 3.34541 7.48198 3.92054 7.48114 4.51815C7.4803 5.11577 7.25004 5.69025 6.83789 6.123L5.96939 7.215C6.45013 8.38277 7.15683 9.44407 8.0489 10.3379C8.94097 11.2318 10.0008 11.9407 11.1676 12.4238L12.2664 11.55C12.6983 11.1368 13.2727 10.9057 13.8705 10.9049C14.4682 10.9041 15.0433 11.1335 15.4764 11.5455C15.4764 11.5455 17.2831 12.9353 17.3064 12.9578ZM16.2751 14.0483C16.2751 14.0483 14.4804 12.6668 14.4571 12.6443C14.3026 12.4911 14.0938 12.4051 13.8763 12.4051C13.6587 12.4051 13.4499 12.4911 13.2954 12.6443C13.2751 12.6638 11.7624 13.8698 11.7624 13.8698C11.6604 13.9509 11.5391 14.0041 11.4104 14.0241C11.2816 14.0441 11.1499 14.0302 11.0281 13.9838C9.5157 13.4211 8.14193 12.5397 6.99995 11.3996C5.85798 10.2594 4.97449 8.88704 4.40939 7.3755C4.35929 7.2521 4.34295 7.11757 4.36206 6.98576C4.38118 6.85394 4.43505 6.7296 4.51814 6.6255C4.51814 6.6255 5.72414 5.115 5.74439 5.0955C5.89759 4.94099 5.98355 4.73222 5.98355 4.51463C5.98355 4.29704 5.89759 4.08826 5.74439 3.93375C5.72189 3.91125 4.34039 2.115 4.34039 2.115C4.18356 1.97438 3.97889 1.89907 3.76832 1.90451C3.55776 1.90995 3.35724 1.99573 3.20789 2.14425L2.34539 2.89425C-1.88611 7.9815 11.0679 20.217 15.5251 16.0065L16.2091 15.2183C16.3704 15.0703 16.4675 14.8652 16.4799 14.6467C16.4922 14.4281 16.4187 14.2134 16.2751 14.0483Z" fill="#DC9C1A"/>
</g>
<defs>
<clipPath id="clip0_623_1076">
<rect width="18" height="18" fill="white" transform="translate(0 0.38623)"/>
</clipPath>
</defs>
</svg>
