<svg width="24" height="25" viewBox="0 0 24 25" fill="none" xmlns="http://www.w3.org/2000/svg">
<g id="jam:facebook-circle">
<g id="Group">
<path id="Vector" d="M10.695 9.32323V10.7002H9.68701V12.3832H10.695V17.3862H12.767V12.3832H14.157C14.157 12.3832 14.288 11.5762 14.351 10.6932H12.775V9.54323C12.775 9.37023 13.001 9.13923 13.225 9.13923H14.353V7.38623H12.818C10.644 7.38623 10.695 9.07123 10.695 9.32323Z" fill="#F5F5F5"/>
<path id="Vector_2" d="M12 20.3862C14.1217 20.3862 16.1566 19.5434 17.6569 18.0431C19.1571 16.5428 20 14.508 20 12.3862C20 10.2645 19.1571 8.22967 17.6569 6.72938C16.1566 5.22909 14.1217 4.38623 12 4.38623C9.87827 4.38623 7.84344 5.22909 6.34315 6.72938C4.84285 8.22967 4 10.2645 4 12.3862C4 14.508 4.84285 16.5428 6.34315 18.0431C7.84344 19.5434 9.87827 20.3862 12 20.3862ZM12 22.3862C6.477 22.3862 2 17.9092 2 12.3862C2 6.86323 6.477 2.38623 12 2.38623C17.523 2.38623 22 6.86323 22 12.3862C22 17.9092 17.523 22.3862 12 22.3862Z" fill="#F5F5F5"/>
</g>
</g>
</svg>
