<svg width="24" height="25" viewBox="0 0 24 25" fill="none" xmlns="http://www.w3.org/2000/svg">
<g id="fi-rs-diploma" clip-path="url(#clip0_113_4894)">
<path id="Vector" d="M7 12.5444H12V14.5444H7V12.5444ZM17 8.54443H7V10.5444H17V8.54443ZM17 4.54443H7V6.54443H17V4.54443ZM20 19.9884V24.5444L18 22.5444L16 24.5444V19.9884C15.2373 19.5502 14.641 18.8722 14.3038 18.0598C13.9666 17.2474 13.9076 16.3463 14.1358 15.4969C14.364 14.6474 14.8667 13.8973 15.5656 13.3633C16.2646 12.8293 17.1204 12.5414 18 12.5444C18.338 12.5486 18.6741 12.5964 19 12.6864V3.54443C19 3.27921 18.8946 3.02486 18.7071 2.83732C18.5196 2.64978 18.2652 2.54443 18 2.54443H6C5.73478 2.54443 5.48043 2.64978 5.29289 2.83732C5.10536 3.02486 5 3.27921 5 3.54443V20.5444H14V22.5444H3V3.54443C3 2.74878 3.31607 1.98571 3.87868 1.42311C4.44129 0.860496 5.20435 0.544426 6 0.544426L18 0.544426C18.7956 0.544426 19.5587 0.860496 20.1213 1.42311C20.6839 1.98571 21 2.74878 21 3.54443V13.9264C21.3917 14.3663 21.6801 14.8883 21.844 15.454C22.0079 16.0198 22.0433 16.615 21.9474 17.1962C21.8515 17.7774 21.6269 18.3297 21.2899 18.8129C20.953 19.296 20.5122 19.6977 20 19.9884ZM20 16.5444C20 16.1489 19.8827 15.7622 19.6629 15.4333C19.4432 15.1044 19.1308 14.848 18.7654 14.6967C18.3999 14.5453 17.9978 14.5057 17.6098 14.5829C17.2219 14.66 16.8655 14.8505 16.5858 15.1302C16.3061 15.4099 16.1156 15.7663 16.0384 16.1542C15.9613 16.5422 16.0009 16.9443 16.1522 17.3098C16.3036 17.6752 16.56 17.9876 16.8889 18.2074C17.2178 18.4271 17.6044 18.5444 18 18.5444C18.5304 18.5444 19.0391 18.3337 19.4142 17.9586C19.7893 17.5836 20 17.0749 20 16.5444Z" fill="#1D2130"/>
</g>
<defs>
<clipPath id="clip0_113_4894">
<rect width="24" height="24" fill="white" transform="translate(0 0.544434)"/>
</clipPath>
</defs>
</svg>
