<svg width="24" height="25" viewBox="0 0 24 25" fill="none" xmlns="http://www.w3.org/2000/svg">
<g id="fi-rs-chart-network" clip-path="url(#clip0_113_4908)">
<path id="Vector" d="M19.9994 12.5443C19.386 12.5442 18.7807 12.6854 18.2306 12.9569C17.6805 13.2285 17.2004 13.6232 16.8274 14.1103L16.7574 14.0803C17.0325 13.2283 17.0737 12.3181 16.8768 11.4447C16.6799 10.5714 16.2522 9.7669 15.6382 9.11532C15.0242 8.46375 14.2465 7.98897 13.3864 7.74059C12.5263 7.4922 11.6152 7.47931 10.7484 7.70327L10.6574 7.53127C11.3838 6.88499 11.8496 5.996 11.9674 5.03091C12.0853 4.06582 11.8472 3.09086 11.2977 2.28877C10.7482 1.48667 9.92506 0.912495 8.98254 0.673837C8.04003 0.435179 7.04282 0.548425 6.17782 0.992352C5.31282 1.43628 4.6394 2.18041 4.28376 3.0853C3.92812 3.99018 3.91468 4.9937 4.24595 5.90779C4.57722 6.82188 5.23046 7.58379 6.08326 8.05073C6.93606 8.51767 7.92987 8.65759 8.87844 8.44427L8.95144 8.58127C7.95149 9.34859 7.27883 10.4658 7.06849 11.7085C6.85815 12.9513 7.1257 14.2276 7.81744 15.2813L5.93244 17.0443C5.08041 16.5735 4.08595 16.4296 3.13543 16.6396C2.18491 16.8495 1.34356 17.3988 0.769036 18.1846C0.194515 18.9704 -0.0737405 19.9388 0.0145365 20.9082C0.102813 21.8776 0.541564 22.7816 1.24857 23.4507C1.95558 24.1198 2.88232 24.5081 3.85512 24.5429C4.82793 24.5777 5.78003 24.2565 6.53302 23.6396C7.28601 23.0227 7.7882 22.1524 7.94549 21.1918C8.10278 20.2311 7.90437 19.2461 7.38744 18.4213L9.22544 16.7033C10.2349 17.378 11.4557 17.6618 12.6593 17.5014C13.8628 17.3411 14.9668 16.7477 15.7644 15.8323L16.0434 15.9513C15.9224 16.7587 16.0513 17.5839 16.413 18.3159C16.7746 19.0479 17.3516 19.6518 18.0664 20.0463C18.7813 20.4408 19.5997 20.6071 20.4118 20.5229C21.224 20.4387 21.9909 20.108 22.6095 19.5752C23.2282 19.0424 23.669 18.333 23.8727 17.5423C24.0764 16.7517 24.0333 15.9176 23.7492 15.1522C23.465 14.3867 22.9534 13.7266 22.2831 13.2604C21.6128 12.7942 20.8159 12.5443 19.9994 12.5443ZM5.99944 4.54427C5.99944 4.1487 6.11674 3.76202 6.3365 3.43313C6.55626 3.10423 6.86862 2.84788 7.23407 2.69651C7.59952 2.54513 8.00166 2.50552 8.38962 2.5827C8.77758 2.65987 9.13395 2.85035 9.41365 3.13005C9.69336 3.40976 9.88384 3.76612 9.96101 4.15409C10.0382 4.54205 9.99857 4.94418 9.8472 5.30963C9.69582 5.67509 9.43948 5.98744 9.11058 6.2072C8.78168 6.42697 8.395 6.54427 7.99944 6.54427C7.46901 6.54427 6.9603 6.33355 6.58523 5.95848C6.21015 5.58341 5.99944 5.0747 5.99944 4.54427ZM3.99944 22.5443C3.60388 22.5443 3.2172 22.427 2.8883 22.2072C2.5594 21.9874 2.30305 21.6751 2.15168 21.3096C2.0003 20.9442 1.9607 20.542 2.03787 20.1541C2.11504 19.7661 2.30552 19.4098 2.58522 19.1301C2.86493 18.8503 3.2213 18.6599 3.60926 18.5827C3.99722 18.5055 4.39935 18.5451 4.76481 18.6965C5.13026 18.8479 5.44261 19.1042 5.66238 19.4331C5.88214 19.762 5.99944 20.1487 5.99944 20.5443C5.99944 21.0747 5.78872 21.5834 5.41365 21.9585C5.03858 22.3336 4.52987 22.5443 3.99944 22.5443ZM11.9994 15.5443C11.3501 15.543 10.7188 15.3311 10.2001 14.9404C9.68154 14.5497 9.30369 14.0013 9.12334 13.3775C8.943 12.7537 8.9699 12.0883 9.2 11.4811C9.4301 10.874 9.85099 10.3578 10.3994 10.0103L10.8064 9.79327C11.2154 9.61537 11.6589 9.5309 12.1046 9.54599C12.5503 9.56107 12.9871 9.67535 13.383 9.88049C13.779 10.0856 14.1243 10.3765 14.3937 10.7319C14.6632 11.0872 14.85 11.4982 14.9406 11.9349C15.0311 12.3716 15.0232 12.823 14.9174 13.2562C14.8116 13.6894 14.6105 14.0936 14.3287 14.4394C14.047 14.7851 13.6918 15.0636 13.2888 15.2548C12.8859 15.4459 12.4454 15.5448 11.9994 15.5443ZM19.9994 18.5443C19.6039 18.5443 19.2172 18.427 18.8883 18.2072C18.5594 17.9874 18.3031 17.6751 18.1517 17.3096C18.0003 16.9442 17.9607 16.542 18.0379 16.1541C18.115 15.7661 18.3055 15.4098 18.5852 15.1301C18.8649 14.8503 19.2213 14.6599 19.6093 14.5827C19.9972 14.5055 20.3994 14.5451 20.7648 14.6965C21.1303 14.8479 21.4426 15.1042 21.6624 15.4331C21.8821 15.762 21.9994 16.1487 21.9994 16.5443C21.9994 17.0747 21.7887 17.5834 21.4137 17.9585C21.0386 18.3336 20.5299 18.5443 19.9994 18.5443Z" fill="#1D2130"/>
</g>
<defs>
<clipPath id="clip0_113_4908">
<rect width="24" height="24" fill="white" transform="translate(0 0.544434)"/>
</clipPath>
</defs>
</svg>
