<svg width="24" height="25" viewBox="0 0 24 25" fill="none" xmlns="http://www.w3.org/2000/svg">
<g id="fi-rr-comments" clip-path="url(#clip0_168_1532)">
<path id="Vector" d="M24 16.7724V21.7724C24 22.568 23.6839 23.3311 23.1213 23.8937C22.5587 24.4563 21.7956 24.7724 21 24.7724H16C14.5971 24.7709 13.2192 24.4006 12.0047 23.6985C10.7901 22.9964 9.78145 21.9873 9.08 20.7724C9.83387 20.767 10.5852 20.6839 11.322 20.5244C11.8832 21.226 12.595 21.7924 13.4048 22.1815C14.2146 22.5707 15.1016 22.7726 16 22.7724H21C21.2652 22.7724 21.5196 22.667 21.7071 22.4795C21.8946 22.2919 22 22.0376 22 21.7724V16.7724C21.9998 15.8736 21.7972 14.9864 21.4074 14.1766C21.0175 13.3668 20.4504 12.6551 19.748 12.0944C19.9088 11.3577 19.9933 10.6064 20 9.85235C21.215 10.5538 22.2241 11.5624 22.9262 12.777C23.6282 13.9916 23.9986 15.3694 24 16.7724ZM17.977 10.4234C18.0705 9.13499 17.8856 7.84159 17.4348 6.63105C16.9841 5.4205 16.278 4.32117 15.3646 3.40777C14.4512 2.49436 13.3518 1.78828 12.1413 1.33751C10.9308 0.886731 9.63736 0.701824 8.349 0.79535C6.06592 1.05608 3.95693 2.14253 2.41918 3.85009C0.881427 5.55766 0.0210272 7.76852 0 10.0664L0 15.1064C0 17.6384 1.507 18.7724 3 18.7724H8.7C10.9988 18.7526 13.211 17.8927 14.9198 16.3549C16.6286 14.8171 17.7159 12.7074 17.977 10.4234ZM13.95 4.82335C14.6599 5.53485 15.2088 6.39055 15.5593 7.33254C15.9099 8.27453 16.054 9.28083 15.982 10.2834C15.7686 12.067 14.9105 13.7112 13.5693 14.9063C12.2282 16.1014 10.4964 16.7651 8.7 16.7724H3C2.072 16.7724 2 15.4974 2 15.1064V10.0664C2.00834 8.27073 2.67265 6.54006 3.86792 5.20003C5.06319 3.86 6.70699 3.00302 8.49 2.79035C8.656 2.77835 8.822 2.77235 8.988 2.77235C9.90927 2.77149 10.8217 2.95219 11.6731 3.30411C12.5245 3.65603 13.2982 4.17228 13.95 4.82335Z" fill="#C88E18"/>
</g>
<defs>
<clipPath id="clip0_168_1532">
<rect width="24" height="24" fill="white" transform="translate(0 0.772461)"/>
</clipPath>
</defs>
</svg>
