<svg width="24" height="25" viewBox="0 0 24 25" fill="none" xmlns="http://www.w3.org/2000/svg">
<g id="fi-rs-stethoscope" clip-path="url(#clip0_113_4887)">
<path id="Vector" d="M24 9.54443C24.0023 8.99392 23.853 8.45339 23.5686 7.98203C23.2842 7.51068 22.8755 7.12668 22.3874 6.87209C21.8993 6.6175 21.3505 6.50213 20.8012 6.53861C20.2519 6.57509 19.7232 6.76203 19.2731 7.07894C18.8229 7.39585 18.4686 7.83052 18.249 8.33535C18.0294 8.84018 17.953 9.3957 18.028 9.94108C18.1031 10.4865 18.3268 11.0007 18.6746 11.4274C19.0224 11.8541 19.481 12.1769 20 12.3604V16.5444C20 18.1357 19.3679 19.6619 18.2426 20.7871C17.1174 21.9123 15.5913 22.5444 14 22.5444C12.4087 22.5444 10.8826 21.9123 9.75736 20.7871C8.63214 19.6619 8 18.1357 8 16.5444V16.4644C9.66408 16.223 11.1858 15.3911 12.2874 14.1206C13.3889 12.8502 13.9968 11.2259 14 9.54443V3.54443C14 2.74878 13.6839 1.98572 13.1213 1.42311C12.5587 0.860504 11.7957 0.544434 11 0.544434L8 0.544434V2.54443H11C11.2652 2.54443 11.5196 2.64979 11.7071 2.83733C11.8946 3.02486 12 3.27922 12 3.54443V9.54443C12 10.8705 11.4732 12.1423 10.5355 13.08C9.59785 14.0176 8.32608 14.5444 7 14.5444C5.67392 14.5444 4.40215 14.0176 3.46447 13.08C2.52678 12.1423 2 10.8705 2 9.54443V3.54443C2 3.27922 2.10536 3.02486 2.29289 2.83733C2.48043 2.64979 2.73478 2.54443 3 2.54443H6V0.544434H3C2.20435 0.544434 1.44129 0.860504 0.87868 1.42311C0.316071 1.98572 0 2.74878 0 3.54443L0 9.54443C0.00321595 11.2259 0.611092 12.8502 1.71264 14.1206C2.81419 15.3911 4.33592 16.223 6 16.4644V16.5444C6 18.6662 6.84285 20.701 8.34315 22.2013C9.84344 23.7016 11.8783 24.5444 14 24.5444C16.1217 24.5444 18.1566 23.7016 19.6569 22.2013C21.1571 20.701 22 18.6662 22 16.5444V12.3604C22.5829 12.1544 23.0879 11.7732 23.4459 11.2691C23.8039 10.7651 23.9974 10.1627 24 9.54443ZM21 10.5444C20.8022 10.5444 20.6089 10.4858 20.4444 10.3759C20.28 10.266 20.1518 10.1098 20.0761 9.92712C20.0004 9.74439 19.9806 9.54332 20.0192 9.34934C20.0578 9.15536 20.153 8.97718 20.2929 8.83733C20.4327 8.69747 20.6109 8.60223 20.8049 8.56365C20.9989 8.52506 21.2 8.54487 21.3827 8.62055C21.5654 8.69624 21.7216 8.82441 21.8315 8.98886C21.9414 9.15331 22 9.34665 22 9.54443C22 9.80965 21.8946 10.064 21.7071 10.2515C21.5196 10.4391 21.2652 10.5444 21 10.5444Z" fill="#1D2130"/>
</g>
<defs>
<clipPath id="clip0_113_4887">
<rect width="24" height="24" fill="white" transform="translate(0 0.544434)"/>
</clipPath>
</defs>
</svg>
