<svg width="24" height="25" viewBox="0 0 24 25" fill="none" xmlns="http://www.w3.org/2000/svg">
<g id="fi-rr-man-head" clip-path="url(#clip0_168_1535)">
<path id="Vector" d="M14.5001 13.7729C14.2034 13.7729 13.9134 13.6849 13.6668 13.5201C13.4201 13.3552 13.2278 13.121 13.1143 12.8469C13.0008 12.5728 12.971 12.2712 13.0289 11.9802C13.0868 11.6892 13.2297 11.422 13.4394 11.2122C13.6492 11.0024 13.9165 10.8596 14.2075 10.8017C14.4984 10.7438 14.8 10.7735 15.0741 10.887C15.3482 11.0006 15.5825 11.1928 15.7473 11.4395C15.9121 11.6862 16.0001 11.9762 16.0001 12.2729C16.0001 12.6707 15.8421 13.0522 15.5608 13.3335C15.2795 13.6148 14.8979 13.7729 14.5001 13.7729ZM21.8511 9.04685C21.4496 6.72695 20.2405 4.62383 18.4377 3.1096C16.6348 1.59537 14.3545 0.767636 12.0001 0.772852C5.1001 0.772852 3.1241 5.44685 1.8191 8.53985C1.55449 9.415 1.10464 10.223 0.500104 10.9089C0.319513 11.0142 0.176474 11.1735 0.091097 11.3643C0.0057198 11.5551 -0.0177015 11.7679 0.0241261 11.9727C0.0659537 12.1776 0.170926 12.3642 0.324286 12.5062C0.477645 12.6483 0.671678 12.7388 0.879104 12.7649C3.35091 12.9727 5.83693 12.5959 8.1361 11.6649C8.00925 11.946 7.97214 12.2594 8.02982 12.5623C8.0875 12.8653 8.23717 13.1432 8.45845 13.358C8.67973 13.5728 8.96186 13.7143 9.2664 13.763C9.57095 13.8117 9.88311 13.7654 10.1604 13.6303C10.4376 13.4952 10.6665 13.2779 10.8158 13.008C10.9651 12.7382 11.0277 12.4288 10.9948 12.1222C10.962 11.8155 10.8355 11.5264 10.6324 11.2943C10.4294 11.0621 10.1597 10.8982 9.8601 10.8249C11.8247 9.7243 13.5181 8.19799 14.8161 6.35785C14.8985 6.25146 14.9585 6.12954 14.9927 5.9994C15.0268 5.86925 15.0343 5.73356 15.0148 5.60043C14.9953 5.46731 14.9491 5.3395 14.879 5.22465C14.8089 5.10981 14.7163 5.01029 14.6068 4.93206C14.4974 4.85383 14.3732 4.79849 14.2419 4.76937C14.1105 4.74024 13.9746 4.73793 13.8423 4.76256C13.7101 4.78719 13.5841 4.83825 13.4721 4.91271C13.36 4.98716 13.2641 5.08346 13.1901 5.19585C12.0239 6.8377 10.5016 8.1946 8.73701 9.16505C6.9724 10.1355 5.01119 10.6944 3.0001 10.7999C3.2271 10.3469 3.4381 9.84385 3.6621 9.31685C4.8921 6.40085 6.4231 2.77285 12.0001 2.77285C13.9759 2.76813 15.8832 3.49675 17.3526 4.81764C18.8221 6.13853 19.749 7.95769 19.9541 9.92285C19.977 10.1377 20.0689 10.3394 20.216 10.4977C20.3631 10.6559 20.5575 10.7623 20.7701 10.8009C21.1344 10.8721 21.4594 11.0759 21.6822 11.3729C21.9049 11.6699 22.0096 12.039 21.976 12.4087C21.9424 12.7784 21.7729 13.1225 21.5003 13.3745C21.2277 13.6265 20.8713 13.7684 20.5001 13.7729C20.4155 13.7705 20.3313 13.7615 20.2481 13.7459C20.0149 13.7033 19.7741 13.7456 19.5693 13.8649C19.3645 13.9843 19.2091 14.173 19.1311 14.3969C18.2151 16.9939 15.1321 19.7729 12.0001 19.7729C9.10011 19.7729 6.4001 17.4899 5.2341 15.2339C5.11211 14.9983 4.90155 14.8209 4.64875 14.7407C4.39595 14.6604 4.12162 14.6839 3.8861 14.8059C3.65059 14.9279 3.47319 15.1384 3.39292 15.3912C3.31266 15.644 3.3361 15.9183 3.4581 16.1539C4.49452 18.0877 6.07314 19.6767 8.0001 20.7259V23.7729C8.0001 24.0381 8.10546 24.2924 8.293 24.48C8.48053 24.6675 8.73489 24.7729 9.0001 24.7729C9.26532 24.7729 9.51968 24.6675 9.70721 24.48C9.89475 24.2924 10.0001 24.0381 10.0001 23.7729V21.5109C11.3102 21.8628 12.69 21.8628 14.0001 21.5109V23.7729C14.0001 24.0381 14.1055 24.2924 14.293 24.48C14.4805 24.6675 14.7349 24.7729 15.0001 24.7729C15.2653 24.7729 15.5197 24.6675 15.7072 24.48C15.8947 24.2924 16.0001 24.0381 16.0001 23.7729V20.7269C18.0642 19.6172 19.7216 17.8793 20.7321 15.7649C21.5179 15.7112 22.2627 15.3941 22.8459 14.8648C23.4292 14.3355 23.8169 13.625 23.9463 12.848C24.0757 12.0711 23.9393 11.2732 23.5591 10.5835C23.1789 9.89367 22.5771 9.35229 21.8511 9.04685Z" fill="#C88E18"/>
</g>
<defs>
<clipPath id="clip0_168_1535">
<rect width="24" height="24" fill="white" transform="translate(0 0.772461)"/>
</clipPath>
</defs>
</svg>
