<svg width="24" height="25" viewBox="0 0 24 25" fill="none" xmlns="http://www.w3.org/2000/svg">
<g id="fe:instagram">
<g id="feInstagram0">
<g id="feInstagram1">
<path id="feInstagram2" fill-rule="evenodd" clip-rule="evenodd" d="M12 2.38623C9.284 2.38623 8.944 2.39823 7.877 2.44623C6.813 2.49523 6.086 2.66423 5.45 2.91123C4.78249 3.16208 4.17775 3.55556 3.678 4.06423C3.16936 4.564 2.77587 5.16873 2.525 5.83623C2.278 6.47223 2.109 7.19923 2.06 8.26323C2.011 9.33023 2 9.67023 2 12.3862C2 15.1022 2.011 15.4422 2.06 16.5092C2.109 17.5732 2.278 18.3002 2.525 18.9362C2.7759 19.6037 3.16938 20.2084 3.678 20.7082C4.17779 21.2169 4.78252 21.6103 5.45 21.8612C6.086 22.1082 6.813 22.2772 7.877 22.3262C8.944 22.3742 9.284 22.3862 12 22.3862C14.716 22.3862 15.056 22.3742 16.123 22.3262C17.187 22.2772 17.914 22.1082 18.55 21.8612C19.2175 21.6104 19.8222 21.2169 20.322 20.7082C20.8306 20.2085 21.2241 19.6037 21.475 18.9362C21.722 18.3002 21.891 17.5732 21.94 16.5092C21.988 15.4422 22 15.1022 22 12.3862C22 9.67023 21.988 9.33023 21.94 8.26323C21.891 7.19923 21.722 6.47223 21.475 5.83623C21.2241 5.16873 20.8306 4.564 20.322 4.06423C19.8222 3.55556 19.2175 3.16208 18.55 2.91123C17.914 2.66423 17.187 2.49523 16.123 2.44623C15.056 2.39823 14.716 2.38623 12 2.38623ZM12 4.18823C14.67 4.18823 14.986 4.19823 16.04 4.24623C17.016 4.29123 17.545 4.45323 17.898 4.59023C18.364 4.77223 18.698 4.98923 19.048 5.33823C19.398 5.68823 19.614 6.02223 19.796 6.48823C19.932 6.84123 20.096 7.37023 20.14 8.34523C20.188 9.40023 20.198 9.71523 20.198 12.3862C20.198 15.0562 20.188 15.3722 20.14 16.4262C20.095 17.4022 19.932 17.9312 19.796 18.2842C19.6357 18.7186 19.3801 19.1116 19.048 19.4342C18.698 19.7842 18.364 20.0002 17.898 20.1822C17.545 20.3182 17.016 20.4822 16.041 20.5262C14.987 20.5742 14.671 20.5842 12 20.5842C9.33 20.5842 9.013 20.5742 7.96 20.5262C6.984 20.4812 6.455 20.3182 6.102 20.1822C5.66758 20.022 5.27462 19.7664 4.952 19.4342C4.61986 19.1116 4.36426 18.7186 4.204 18.2842C4.067 17.9312 3.904 17.4022 3.86 16.4272C3.812 15.3722 3.802 15.0572 3.802 12.3862C3.802 9.71623 3.812 9.40023 3.86 8.34623C3.905 7.37023 4.067 6.84123 4.204 6.48823C4.386 6.02223 4.603 5.68823 4.952 5.33823C5.302 4.98823 5.636 4.77223 6.102 4.59023C6.455 4.45323 6.984 4.29023 7.959 4.24623C9.014 4.19823 9.329 4.18823 12 4.18823ZM12 15.7192C11.116 15.7192 10.2683 15.3681 9.64321 14.743C9.01815 14.118 8.667 13.2702 8.667 12.3862C8.667 11.5023 9.01815 10.6545 9.64321 10.0294C10.2683 9.40439 11.116 9.05323 12 9.05323C12.884 9.05323 13.7317 9.40439 14.3568 10.0294C14.9818 10.6545 15.333 11.5023 15.333 12.3862C15.333 13.2702 14.9818 14.118 14.3568 14.743C13.7317 15.3681 12.884 15.7192 12 15.7192ZM12 7.25123C11.3257 7.25123 10.6579 7.38405 10.0349 7.64211C9.41191 7.90017 8.84584 8.27841 8.36901 8.75524C7.89218 9.23207 7.51394 9.79814 7.25588 10.4212C6.99782 11.0442 6.865 11.7119 6.865 12.3862C6.865 13.0606 6.99782 13.7283 7.25588 14.3513C7.51394 14.9743 7.89218 15.5404 8.36901 16.0172C8.84584 16.4941 9.41191 16.8723 10.0349 17.1304C10.6579 17.3884 11.3257 17.5212 12 17.5212C13.3619 17.5212 14.668 16.9802 15.631 16.0172C16.594 15.0542 17.135 13.7481 17.135 12.3862C17.135 11.0243 16.594 9.71824 15.631 8.75524C14.668 7.79224 13.3619 7.25123 12 7.25123ZM18.538 7.04823C18.538 7.20582 18.507 7.36186 18.4467 7.50745C18.3863 7.65304 18.298 7.78533 18.1865 7.89676C18.0751 8.00819 17.9428 8.09658 17.7972 8.15689C17.6516 8.21719 17.4956 8.24823 17.338 8.24823C17.1804 8.24823 17.0244 8.21719 16.8788 8.15689C16.7332 8.09658 16.6009 8.00819 16.4895 7.89676C16.378 7.78533 16.2897 7.65304 16.2293 7.50745C16.169 7.36186 16.138 7.20582 16.138 7.04823C16.138 6.72997 16.2644 6.42475 16.4895 6.1997C16.7145 5.97466 17.0197 5.84823 17.338 5.84823C17.6563 5.84823 17.9615 5.97466 18.1865 6.1997C18.4116 6.42475 18.538 6.72997 18.538 7.04823Z" fill="#F5F5F5"/>
</g>
</g>
</g>
</svg>
