<svg width="24" height="25" viewBox="0 0 24 25" fill="none" xmlns="http://www.w3.org/2000/svg">
<g id="typcn:social-linkedin-circular">
<path id="Vector" d="M9.70517 16.2362H7.8385V10.1707H9.70517V16.2362ZM8.77183 9.39256C8.09867 9.39256 7.7615 9.08106 7.7615 8.45923C7.75941 8.33444 7.7844 8.21068 7.83476 8.09648C7.88511 7.98228 7.95962 7.88036 8.05317 7.79773C8.24771 7.61623 8.50587 7.51858 8.77183 7.5259C9.445 7.5259 9.78217 7.83856 9.78217 8.4604C9.78217 9.08223 9.44617 9.39256 8.77183 9.39256ZM16.6282 16.2362H14.723V12.8529C14.723 11.9721 14.4103 11.5311 13.7885 11.5311C13.2962 11.5311 12.973 11.7772 12.8155 12.2696C12.7653 12.3477 12.7385 12.5041 12.7385 12.7362V16.2362H10.8333V12.1144C10.8333 11.1811 10.8193 10.5336 10.7948 10.1707H12.4282L12.5448 10.9862C12.973 10.3376 13.5948 10.0144 14.45 10.0144C15.0998 10.0144 15.6237 10.2407 16.025 10.6946C16.4287 11.1484 16.6293 11.8029 16.6293 12.6592V16.2362H16.6282ZM12 22.8862C6.20983 22.8862 1.5 18.1764 1.5 12.3862C1.5 6.59606 6.20983 1.88623 12 1.88623C17.7902 1.88623 22.5 6.59606 22.5 12.3862C22.5 18.1764 17.7902 22.8862 12 22.8862ZM12 4.21956C7.49783 4.21956 3.83333 7.88406 3.83333 12.3862C3.83333 16.8884 7.49783 20.5529 12 20.5529C16.5022 20.5529 20.1667 16.8884 20.1667 12.3862C20.1667 7.88406 16.5022 4.21956 12 4.21956Z" fill="#F5F5F5"/>
</g>
</svg>
