<svg width="18" height="19" viewBox="0 0 18 19" fill="none" xmlns="http://www.w3.org/2000/svg">
<g id="fi-rr-envelope-plus" clip-path="url(#clip0_623_1072)">
<path id="Vector" d="M18 7.88623V14.6362C17.9988 15.6304 17.6033 16.5836 16.9003 17.2866C16.1973 17.9896 15.2442 18.385 14.25 18.3862H3.75C2.7558 18.385 1.80267 17.9896 1.09966 17.2866C0.396661 16.5836 0.00119089 15.6304 0 14.6362L0 6.38623C0.00119089 5.39203 0.396661 4.4389 1.09966 3.7359C1.80267 3.03289 2.7558 2.63742 3.75 2.63623H9.75C9.94891 2.63623 10.1397 2.71525 10.2803 2.8559C10.421 2.99655 10.5 3.18732 10.5 3.38623C10.5 3.58514 10.421 3.77591 10.2803 3.91656C10.1397 4.05721 9.94891 4.13623 9.75 4.13623H3.75C3.34216 4.13736 2.94234 4.24969 2.59359 4.46114C2.24483 4.67258 1.96035 4.97513 1.77075 5.33623L7.4085 10.9747C7.83127 11.3955 8.4035 11.6318 9 11.6318C9.5965 11.6318 10.1687 11.3955 10.5915 10.9747L13.4573 8.11123C13.5987 7.97461 13.7882 7.89902 13.9848 7.90073C14.1814 7.90243 14.3696 7.98131 14.5086 8.12037C14.6477 8.25942 14.7265 8.44753 14.7283 8.64418C14.73 8.84083 14.6544 9.03028 14.5177 9.17173L11.652 12.0382C10.9479 12.7402 9.99425 13.1344 9 13.1344C8.00575 13.1344 7.05207 12.7402 6.348 12.0382L1.5 7.18948V14.6362C1.5 15.233 1.73705 15.8053 2.15901 16.2272C2.58097 16.6492 3.15326 16.8862 3.75 16.8862H14.25C14.8467 16.8862 15.419 16.6492 15.841 16.2272C16.2629 15.8053 16.5 15.233 16.5 14.6362V7.88623C16.5 7.68732 16.579 7.49655 16.7197 7.3559C16.8603 7.21525 17.0511 7.13623 17.25 7.13623C17.4489 7.13623 17.6397 7.21525 17.7803 7.3559C17.921 7.49655 18 7.68732 18 7.88623ZM12.75 4.13623H14.25V5.63623C14.25 5.83514 14.329 6.02591 14.4697 6.16656C14.6103 6.30721 14.8011 6.38623 15 6.38623C15.1989 6.38623 15.3897 6.30721 15.5303 6.16656C15.671 6.02591 15.75 5.83514 15.75 5.63623V4.13623H17.25C17.4489 4.13623 17.6397 4.05721 17.7803 3.91656C17.921 3.77591 18 3.58514 18 3.38623C18 3.18732 17.921 2.99655 17.7803 2.8559C17.6397 2.71525 17.4489 2.63623 17.25 2.63623H15.75V1.13623C15.75 0.937318 15.671 0.746553 15.5303 0.6059C15.3897 0.465248 15.1989 0.38623 15 0.38623C14.8011 0.38623 14.6103 0.465248 14.4697 0.6059C14.329 0.746553 14.25 0.937318 14.25 1.13623V2.63623H12.75C12.5511 2.63623 12.3603 2.71525 12.2197 2.8559C12.079 2.99655 12 3.18732 12 3.38623C12 3.58514 12.079 3.77591 12.2197 3.91656C12.3603 4.05721 12.5511 4.13623 12.75 4.13623Z" fill="#DC9C1A"/>
</g>
<defs>
<clipPath id="clip0_623_1072">
<rect width="18" height="18" fill="white" transform="translate(0 0.38623)"/>
</clipPath>
</defs>
</svg>
