<svg width="18" height="19" viewBox="0 0 18 19" fill="none" xmlns="http://www.w3.org/2000/svg">
<path id="Vector" d="M17.4921 18.1336H15.0919C14.3646 18.1336 13.6372 18.1336 12.9099 18.1336C12.7815 18.1452 12.6525 18.119 12.5388 18.0582C12.4251 17.9975 12.3316 17.9049 12.2698 17.7918C10.8661 15.7261 9.44776 13.675 8.03673 11.6167L7.80398 11.2967L6.08747 13.2896C4.75886 14.8412 3.42541 16.388 2.08711 17.93C1.97529 18.0449 1.82518 18.1148 1.66526 18.1264C1.31613 18.1264 0.937918 18.1264 0.508789 18.1264C0.646983 17.9518 0.72699 17.8427 0.814271 17.7409C2.84597 15.3697 4.87766 13.001 6.90936 10.6348C6.9549 10.5999 6.9924 10.5556 7.01933 10.505C7.04626 10.4543 7.06199 10.3985 7.06543 10.3412C7.06888 10.284 7.05998 10.2267 7.03932 10.1731C7.01867 10.1196 6.98675 10.0712 6.94572 10.0311C4.88494 7.05386 2.82899 4.06935 0.777904 1.07757L0.516062 0.641165H0.894278C2.29804 0.641165 3.70907 0.641165 5.11283 0.641165C5.24325 0.633503 5.37309 0.663768 5.48667 0.728303C5.60025 0.792839 5.69271 0.888883 5.75289 1.00483C7.06695 2.9444 8.3907 4.88397 9.72415 6.82353C9.78234 6.91081 9.8478 6.99082 9.93508 7.10719C10.0805 6.94718 10.2115 6.80899 10.3278 6.67079C11.9062 4.77244 13.5427 2.91046 15.1283 1.03393C15.217 0.898539 15.3413 0.790243 15.4876 0.720949C15.6339 0.651655 15.7965 0.624048 15.9574 0.641165C16.2265 0.641165 16.5029 0.641165 16.8593 0.641165C16.791 0.750149 16.7157 0.854617 16.6339 0.95392L10.9388 7.6236C10.4951 8.14729 10.5242 7.96545 10.9024 8.50368C12.9972 11.5803 15.1137 14.6424 17.223 17.7045C17.2957 17.8209 17.3685 17.9445 17.4921 18.1336ZM15.3101 16.9917L14.9828 16.4898L12.5535 12.9623C10.0563 9.31588 7.55669 5.67919 5.05465 2.0522C4.98919 1.95765 4.88736 1.834 4.80008 1.82672C4.07274 1.82672 3.42541 1.82672 2.66171 1.82672C2.77808 2.00856 2.84354 2.13221 2.92355 2.24858L7.89854 9.52195L12.8735 16.7953C12.9535 16.9117 13.099 17.0572 13.2154 17.0644C13.8991 17.0063 14.5682 16.9917 15.3319 16.9917H15.3101Z" fill="white"/>
</svg>
